<?xml version="1.0" encoding="UTF-8" standalone="no"?>
<svg
   version="1.1"
   id="Layer_2"
   x="0"
   y="0"
   width="90"
   height="40"
   xml:space="preserve"
   xmlns="http://www.w3.org/2000/svg"
   xmlns:svg="http://www.w3.org/2000/svg"><defs
     id="defs5" /><style
     id="style1">.st1{fill:#0b485b}</style><path
     class="st1"
     d="m 21.938877,24.516504 v 5.5 H 2.9388769 v -4.3 l 9.5000001,-11.2 H 3.1388769 V 9.0165036 H 21.438877 v 4.3000004 l -9.5,11.2 z m 7.3,4.5 c -1.8,-0.9 -3.2,-2.2 -4.2,-3.9 -1,-1.7 -1.5,-3.5 -1.5,-5.6 0,-2.1 0.5,-3.9 1.5,-5.6 1,-1.7 2.4,-2.9 4.1,-3.9 1.8,-0.9000004 3.8,-1.4000004 6,-1.4000004 2.2,0 4.2,0.5 6,1.4000004 1.8,0.9 3.2,2.2 4.1,3.8 1,1.6 1.5,3.5 1.5,5.6 0,2.1 -0.5,4 -1.5,5.6 -1,1.7 -2.4,3 -4.1,3.9 -1.8,0.9 -3.8,1.4 -6,1.4 -2.2,0.1 -4.1,-0.4 -5.9,-1.3 z m 9.1,-5.8 c 0.8,-0.9 1.2,-2.1 1.2,-3.7 0,-1.6 -0.4,-2.8 -1.2,-3.7 -0.8,-0.9 -1.8,-1.3 -3.1,-1.3 -1.3,0 -2.3,0.4 -3.1,1.3 -0.8,0.9 -1.2,2.1 -1.2,3.7 0,1.6 0.4,2.8 1.2,3.7 0.8,0.9 1.8,1.3 3.1,1.3 1.2,0 2.2,-0.4 3.1,-1.3 z m 21.5,-13.8000004 c 1.2,-0.5 2.5,-0.7 4,-0.7 v 6.6000004 c -0.7,-0.1 -1.2,-0.1 -1.6,-0.1 -1.5,0 -2.8,0.4 -3.6,1.3 -0.9,0.9 -1.3,2.2 -1.3,3.9 v 9.7 h -7.2 V 9.1165036 h 6.9 v 2.5000004 c 0.7,-1 1.7,-1.8000004 2.8,-2.2000004 z M 71.038874,29.016504 c -1.8,-0.9 -3.2,-2.2 -4.2,-3.9 -1,-1.7 -1.5,-3.5 -1.5,-5.6 0,-2.1 0.5,-3.9 1.5,-5.6 1,-1.7 2.4,-2.9 4.1,-3.9 1.8,-0.9000004 3.8,-1.4000004 6,-1.4000004 2.2,0 4.2,0.5 6,1.4000004 1.8,0.9 3.2,2.2 4.1,3.8 1,1.6 1.5,3.5 1.5,5.6 0,2.1 -0.5,4 -1.5,5.6 -1,1.7 -2.4,3 -4.1,3.9 -1.8,0.9 -3.8,1.4 -6,1.4 -2.1,0.1 -4.1,-0.4 -5.9,-1.3 z m 9.1,-5.8 c 0.8,-0.9 1.2,-2.1 1.2,-3.7 0,-1.6 -0.4,-2.8 -1.2,-3.7 -0.8,-0.9 -1.8,-1.3 -3.1,-1.3 -1.3,0 -2.3,0.4 -3.1,1.3 -0.8,0.9 -1.2,2.1 -1.2,3.7 0,1.6 0.4,2.8 1.2,3.7 0.8,0.9 1.8,1.3 3.1,1.3 1.2,0 2.3,-0.4 3.1,-1.3 z"
     id="path5" /></svg>
