<?xml version="1.0" encoding="UTF-8" standalone="no"?>
<!-- Created with Inkscape (http://www.inkscape.org/) -->

<svg
   version="1.1"
   id="svg1"
   width="240"
   height="75"
   viewBox="0 0 240 75"
   xml:space="preserve"
   xmlns="http://www.w3.org/2000/svg"
   xmlns:svg="http://www.w3.org/2000/svg"><defs
     id="defs1" /><g
     id="g1"><path
       style="fill:#cc0000;fill-opacity:1"
       d="M 26.522726,69.539088 C 15.621376,65.540808 5.8604962,52.792348 5.8604962,42.552638 v -2.46505 h 31.0878998 31.0879 l -0.67714,4.25 c -1.9963,12.52958 -10.93562,22.61327 -23.24866,26.22482 l -2.25,0.65995 v -5.06738 -5.06739 h -5 -5 v 5 c 0,5.51006 0.0995,5.44572 -5.33777,3.4515 z M 5.8604962,17.087588 V 4.0875883 h 12.9999998 13 v 5 4.9999997 h 5 5 v -4.9999997 -5 h 13 13 v 12.9999997 13 h -31 -30.9999998 z"
       id="path3" /><g
       id="g11"
       transform="matrix(0.76691986,0,0,0.76691986,106.93599,-109.06131)"
       style="fill:#1a1a1a"><polygon
         class="st0"
         points="103.7,363 82.6,306 82.4,306 70.7,363 47.7,363 66.8,275.9 91.2,275.9 112.6,332.8 112.8,332.8 124.2,275.9 147.2,275.9 128.2,363 "
         id="polygon5"
         transform="translate(-95.954516,-128.10877)"
         style="fill:#1a1a1a" /><path
         class="st0"
         d="m 69.745484,205.59123 c 0,9.4 5.5,12.4 16.8,12.4 9.6,0 13.599996,-3.9 13.599996,-8.7 0,-8.7 -13.799996,-9.6 -23.299996,-12.8 -11.4,-3.9 -20.6,-9.7 -20.6,-22.4 0,-19.8 18.8,-28.2 37.1,-28.2 19.499996,0 35.999996,6.8 35.299996,28 h -23.8 c 0,-3.3 -1.1,-5.6 -3.2,-7.1 -2.199996,-1.6 -5.399996,-2.3 -9.599996,-2.3 -5.9,0 -12,2.3 -12,7.8 0,5.3 3.8,5.9 16.7,9.2 12.499996,3.3 27.199996,9.5 27.199996,26.6 0,15.5 -14.5,28.5 -41.199996,28.5 -21.8,0 -37,-10.5 -36.7,-31.1 h 23.7 z"
         id="path5"
         style="fill:#1a1a1a" /><polygon
         class="st0"
         points="264,275.9 244.9,363 221.1,363 240.2,275.9 "
         id="polygon6"
         transform="translate(-95.954516,-128.10877)"
         style="fill:#1a1a1a" /></g></g><style
     type="text/css"
     id="style1">
	.st0{fill:#FFFFFF;}
	.st1{fill:none;stroke:#000000;stroke-width:6.2513;stroke-miterlimit:10;}
	.st2{fill:#DA272E;}
	.st3{fill:none;stroke:#221E1F;stroke-width:6.3073;stroke-miterlimit:10;}
</style></svg>
