<?xml version="1.0" encoding="UTF-8" standalone="no"?>
<svg
   version="1.1"
   width="200"
   height="185"
   style="fill:#221f1f"
   id="svg1936"
   xmlns="http://www.w3.org/2000/svg"
   xmlns:svg="http://www.w3.org/2000/svg">
  <defs
     id="defs1" />
  <path
     d="m 179.65098,139.87128 c -21.64597,24.36234 -53.02049,37.36053 -80.033359,37.36053 -37.876397,0 -71.974886,-21.39131 -97.7717097,-56.96923 -2.02677292,-2.79772 -0.2107912,-6.6105 2.22135,-4.43177 27.8398027,24.73371 62.2625887,39.61355 97.8203687,39.61355 23.98079,0 50.36133,-7.5761 74.61779,-23.29772 3.66442,-2.37682 6.7289,3.66425 3.14556,7.72464"
     id="path8"
     style="fill:#ff9900;stroke-width:0.764239" />
  <path
     d="m 188.64988,124.14966 c -2.75642,-5.39734 -18.28964,-2.55011 -25.26175,-1.28744 -2.12407,0.39614 -2.44835,-2.42632 -0.53508,-4.45653 12.37145,-13.2953 32.67165,-9.45774 35.03892,-5.00121 2.36728,4.48129 -0.61613,35.55317 -12.24173,50.38347 -1.78356,2.27778 -3.48606,1.06463 -2.69155,-1.95591 2.61048,-9.95291 8.46381,-32.26028 5.69119,-37.68238"
     id="path10"
     style="fill:#ff9900;stroke-width:0.764239" />
  <path
     d="m 112.48725,81.490672 v -5.355141 c -17.873662,0 -36.755762,3.825101 -36.755762,24.897929 0,10.67551 5.529002,17.90847 15.022216,17.90847 6.954737,0 13.179216,-4.27717 17.108656,-11.23191 4.86828,-8.554326 4.62489,-16.587048 4.62489,-26.219348 m 24.93272,60.262768 c -1.63436,1.46048 -3.99899,1.56481 -5.84199,0.59117 -8.20656,-6.81565 -9.66708,-9.98004 -14.18767,-16.48271 -13.56172,13.8399 -23.159223,17.97795 -40.754718,17.97795 -20.794666,0 -36.999172,-12.83147 -36.999172,-38.5292 0,-20.06442 10.884157,-33.730474 26.358434,-40.407015 13.422635,-5.911545 32.165644,-6.954734 46.492396,-8.589095 v -3.199179 c 0,-5.876769 0.45206,-12.831504 -2.99053,-17.908434 -3.02533,-4.55537 -8.79773,-6.433149 -13.874696,-6.433149 -9.423652,0 -17.838896,4.833539 -19.890536,14.848355 -0.417296,2.225531 -2.051657,4.416271 -4.27716,4.520591 L 47.460496,45.569455 c -2.016877,-0.452033 -4.242395,-2.08642 -3.686014,-5.181252 5.529015,-29.070788 31.783129,-37.8337731 55.29014,-37.8337731 12.031658,0 27.749348,3.1991785 37.242578,12.3098761 12.0317,11.231895 10.88416,26.219349 10.88416,42.528215 v 38.529225 c 0,11.579634 4.79878,16.656574 9.31936,22.915864 1.59957,2.22549 1.94732,4.90307 -0.0695,6.57221 -5.04218,4.20762 -14.01378,12.0317 -18.95166,16.41318 l -0.0695,-0.0696"
     id="path30"
     style="stroke-width:1.32639" />
</svg>
