<?xml version="1.0" encoding="UTF-8" standalone="no"?>
<!-- Generator: Adobe Illustrator 19.0.0, SVG Export Plug-In . SVG Version: 6.00 Build 0)  -->

<svg
   id="layer"
   width="600"
   height="218.5"
   version="1.1"
   viewBox="-153 -46 600 218.5"
   xml:space="preserve"
   xmlns="http://www.w3.org/2000/svg"
   xmlns:svg="http://www.w3.org/2000/svg"><defs
   id="defs1" />
<style
   id="style833"
   type="text/css">
	.st0{fill:#003366;}
</style>
<rect
   id="rect995"
   x="-112.6"
   y="-8"
   width="519.59998"
   height="146"
   fill="#ffffff"
   fill-rule="evenodd"
   stroke-width="14.5422" /><path
   id="path835"
   class="st0"
   d="m -153,-46 h 600 v 218.5 h -600 z m 40.4,123.8 c 0,21.1 2.6,31 14.5,44 11.5,12.5 30.5,15.29921 40.8,15.29921 17.5,0 30.2,-5.99921 39.4,-15.29921 9,-9.7 13.9,-20.1 13.9,-44 V -8 h -35.8 v 85.8 c 0,11.3 0,26.9 -18.1,26.9 -17.7,0 -18.5,-17.1 -18.5,-26.9 V -8 h -36.2 z m 213.4,56.3 V 102.3 H 59.2 V -8 H 22.8 V 134.1 Z M 157.3,-8 h -36.2 v 142.1 h 36.2 z M 217,134.1 V 47.7 l 53.9,86.4 h 31.8 V -8 H 268.9 V 81.6 L 214,-8 h -31 v 142.1 z m 190,0 V 102.3 H 363.2 V 77.8 h 42.6 V 46.2 H 363.2 V 24.5 H 407 V -7.9 H 328.4 V 134.2 H 407 Z" />
</svg>
