<?xml version="1.0" encoding="UTF-8" standalone="no"?>
<svg
   version="1.1"
   id="Layer_2"
   x="0"
   y="0"
   width="125"
   height="40"
   xml:space="preserve"
   sodipodi:docname="origin.logo.zoro.svg"
   inkscape:export-filename="../apps/alegria-grill.github.io/caleb/logo.zoro.svg"
   inkscape:export-xdpi="96"
   inkscape:export-ydpi="96"
   inkscape:version="1.4 (e7c3feb100, 2024-10-09)"
   xmlns:inkscape="http://www.inkscape.org/namespaces/inkscape"
   xmlns:sodipodi="http://sodipodi.sourceforge.net/DTD/sodipodi-0.dtd"
   xmlns="http://www.w3.org/2000/svg"
   xmlns:svg="http://www.w3.org/2000/svg"><defs
     id="defs5" /><sodipodi:namedview
     id="namedview5"
     pagecolor="#ffffff"
     bordercolor="#666666"
     borderopacity="1.0"
     inkscape:showpageshadow="2"
     inkscape:pageopacity="0.0"
     inkscape:pagecheckerboard="0"
     inkscape:deskcolor="#d1d1d1"
     inkscape:zoom="9.0423077"
     inkscape:cx="95.440238"
     inkscape:cy="13.326244"
     inkscape:window-width="2507"
     inkscape:window-height="1376"
     inkscape:window-x="43"
     inkscape:window-y="33"
     inkscape:window-maximized="1"
     inkscape:current-layer="Layer_2" /><style
     id="style1">.st1{fill:#0b485b}</style><path
     style="fill:#7698a3"
     d="m 31.1,31.558869 -14.6,6.4 -14.5,-6.4 14.5,-6.5 z"
     id="path1" /><path
     class="st1"
     d="m 16.5,17.458869 v 20.5 l -14.5,-6.4 v -20.5 z"
     id="path2" /><path
     style="fill:#e69770"
     d="M 20.2,22.458869 V 1.9588686 l 14.5,6.4 V 28.858869 Z"
     id="path3" /><path
     style="fill:#d24600"
     d="m 5.7,8.3588686 14.5,-6.4 14.5,6.4 -14.5,6.5000004 z"
     id="path4" /><path
     class="st1"
     d="m 57.328073,24.074139 v 5.5 h -19 v -4.3 l 9.5,-11.2 h -9.3 V 8.5741387 h 18.3 v 4.3000003 l -9.5,11.2 z m 7.3,4.5 c -1.8,-0.9 -3.2,-2.2 -4.2,-3.9 -1,-1.7 -1.5,-3.5 -1.5,-5.6 0,-2.1 0.5,-3.9 1.5,-5.6 1,-1.7 2.4,-2.9 4.1,-3.9000003 1.8,-0.9 3.8,-1.4 6,-1.4 2.2,0 4.2,0.5 6,1.4 1.8,0.9000003 3.2,2.2000003 4.1,3.8000003 1,1.6 1.5,3.5 1.5,5.6 0,2.1 -0.5,4 -1.5,5.6 -1,1.7 -2.4,3 -4.1,3.9 -1.8,0.9 -3.8,1.4 -6,1.4 -2.2,0.1 -4.1,-0.4 -5.9,-1.3 z m 9.1,-5.8 c 0.8,-0.9 1.2,-2.1 1.2,-3.7 0,-1.6 -0.4,-2.8 -1.2,-3.7 -0.8,-0.9 -1.8,-1.3 -3.1,-1.3 -1.3,0 -2.3,0.4 -3.1,1.3 -0.8,0.9 -1.2,2.1 -1.2,3.7 0,1.6 0.4,2.8 1.2,3.7 0.8,0.9 1.8,1.3 3.1,1.3 1.2,0 2.2,-0.4 3.1,-1.3 z m 21.5,-13.8000003 c 1.2,-0.5 2.5,-0.7 4,-0.7 v 6.6000003 c -0.7,-0.1 -1.2,-0.1 -1.6,-0.1 -1.5,0 -2.8,0.4 -3.6,1.3 -0.9,0.9 -1.3,2.2 -1.3,3.9 v 9.7 h -7.2 V 8.6741387 h 6.9 v 2.5000003 c 0.7,-1 1.7,-1.8000003 2.8,-2.2000003 z M 106.42807,28.574139 c -1.8,-0.9 -3.2,-2.2 -4.2,-3.9 -1,-1.7 -1.5,-3.5 -1.5,-5.6 0,-2.1 0.5,-3.9 1.5,-5.6 1,-1.7 2.4,-2.9 4.1,-3.9000003 1.8,-0.9 3.8,-1.4 6,-1.4 2.2,0 4.2,0.5 6,1.4 1.8,0.9000003 3.2,2.2000003 4.1,3.8000003 1,1.6 1.5,3.5 1.5,5.6 0,2.1 -0.5,4 -1.5,5.6 -1,1.7 -2.4,3 -4.1,3.9 -1.8,0.9 -3.8,1.4 -6,1.4 -2.1,0.1 -4.1,-0.4 -5.9,-1.3 z m 9.1,-5.8 c 0.8,-0.9 1.2,-2.1 1.2,-3.7 0,-1.6 -0.4,-2.8 -1.2,-3.7 -0.8,-0.9 -1.8,-1.3 -3.1,-1.3 -1.3,0 -2.3,0.4 -3.1,1.3 -0.8,0.9 -1.2,2.1 -1.2,3.7 0,1.6 0.4,2.8 1.2,3.7 0.8,0.9 1.8,1.3 3.1,1.3 1.2,0 2.3,-0.4 3.1,-1.3 z"
     id="path5"
     sodipodi:nodetypes="cccccccccccsssscsscscccscsssssssccccscsccccccsssscsscscccssssssssss" /></svg>
