<?xml version="1.0" encoding="UTF-8" standalone="no"?>
<!-- Generator: Adobe Illustrator 19.0.0, SVG Export Plug-In . SVG Version: 6.00 Build 0)  -->

<svg
   id="layer"
   width="600"
   height="218.5"
   version="1.1"
   viewBox="-153 -46 600 218.5"
   xml:space="preserve"
   sodipodi:docname="origin.logo.uline.svg"
   inkscape:export-filename="logo.uline.svg"
   inkscape:export-xdpi="96"
   inkscape:export-ydpi="96"
   inkscape:version="1.4 (e7c3feb100, 2024-10-09)"
   xmlns:inkscape="http://www.inkscape.org/namespaces/inkscape"
   xmlns:sodipodi="http://sodipodi.sourceforge.net/DTD/sodipodi-0.dtd"
   xmlns="http://www.w3.org/2000/svg"
   xmlns:svg="http://www.w3.org/2000/svg"><defs
   id="defs1" /><sodipodi:namedview
   id="namedview1"
   pagecolor="#ffffff"
   bordercolor="#666666"
   borderopacity="1.0"
   inkscape:showpageshadow="2"
   inkscape:pageopacity="0.0"
   inkscape:pagecheckerboard="0"
   inkscape:deskcolor="#d1d1d1"
   inkscape:zoom="1.9591667"
   inkscape:cx="246.53339"
   inkscape:cy="114.58954"
   inkscape:window-width="2507"
   inkscape:window-height="1376"
   inkscape:window-x="43"
   inkscape:window-y="33"
   inkscape:window-maximized="1"
   inkscape:current-layer="layer" />
<style
   id="style833"
   type="text/css">
	.st0{fill:#003366;}
</style>
<rect
   id="rect995"
   x="-112.6"
   y="-8"
   width="519.59998"
   height="146"
   fill="#ffffff"
   fill-rule="evenodd"
   stroke-width="14.5422" /><path
   id="path835"
   class="st0"
   d="m-153-46h600v218.5h-600zm40.4 123.8c0 21.1 2.6 31 14.5 44 11.5 12.5 30.5 15.29921 40.8 15.29921 17.5 0 30.2-5.99921 39.4-15.29921 9-9.7 13.9-20.1 13.9-44v-85.8h-35.8v85.8c0 11.3 0 26.9-18.1 26.9-17.7 0-18.5-17.1-18.5-26.9v-85.8h-36.2zm213.4 56.3v-31.8h-41.6v-110.3h-36.4v142.1zm56.5-142.1h-36.2v142.1h36.2zm59.7 142.1v-86.4l53.9 86.4h31.8v-142.1h-33.8v89.6l-54.9-89.6h-31v142.1zm190 0v-31.8h-43.8v-24.5h42.6v-31.6h-42.6v-21.7h43.8v-32.4h-78.6v142.1h78.6z" />
</svg>
